# xmcd
#
# Track frame offsets: 
#        150
#        20057
#        38970
#        62573
#        79529
#        106486
#        129697
#
# Disc length: 1935 seconds
#
# Revision: 0
# Processed by: cddbd v1.5.1PL0 Copyright (c) Steve Scherf et al.
# Submitted via: ExactAudioCopy v0.95a5
#
DISCID=58078d07
DTITLE=Back Alley (Demo CD) - Blues That Rocks
DYEAR=2005
DGENRE=Blues
TTITLE0=Callin San Francisco
TTITLE1=Born In Chicago
TTITLE2=Sweet Home Chicago
TTITLE3=Messin With The Kid
TTITLE4=No Fightin
TTITLE5=Spell On Me
TTITLE6=Automatic
EXTD=
EXTT0=
EXTT1=
EXTT2=
EXTT3=
EXTT4=
EXTT5=
EXTT6=
PLAYORDER=
